<?xml version="1.0" encoding="UTF-8"?>
<svg id="Layer_2" data-name="Layer 2" xmlns="http://www.w3.org/2000/svg" viewBox="0 0 145 145">
  <defs>
    <style>
      .cls-1 {
        fill: #fff;
      }

      .cls-2 {
        fill: #4aaf54;
      }
    </style>
  </defs>
  <g id="Layer_1-2" data-name="Layer 1">
    <g>
      <circle class="cls-1" cx="73" cy="73" r="69"/>
      <g>
        <path class="cls-2" d="M72.5,0C32.46,0,0,32.46,0,72.5s32.46,72.5,72.5,72.5,72.5-32.46,72.5-72.5S112.54,0,72.5,0Zm0,130.54c-32.05,0-58.04-25.98-58.04-58.04S40.45,14.46,72.5,14.46s58.04,25.98,58.04,58.04-25.98,58.04-58.04,58.04Z"/>
        <path class="cls-2" d="M102.62,73.94h-30.02l-15.71-27.21c-1.62-2.8-5.2-3.76-8-2.14-2.8,1.62-3.76,5.2-2.14,8l16.56,28.68c.29,.5,.65,.95,1.05,1.33,.99,1.82,2.93,3.06,5.15,3.06h33.12c3.24,0,5.86-2.62,5.86-5.86h0c0-3.24-2.62-5.86-5.86-5.86Z"/>
      </g>
    </g>
  </g>
</svg>