<?xml version="1.0" encoding="UTF-8"?>
<svg id="Layer_2" data-name="Layer 2" xmlns="http://www.w3.org/2000/svg" viewBox="0 0 1153.4 621">
  <defs>
    <style>
      .cls-1 {
        fill: #f79b5b;
      }

      .cls-2 {
        fill: #efae76;
      }

      .cls-3 {
        fill: #f5dea8;
      }

      .cls-4 {
        fill: #fbbf84;
      }

      .cls-5 {
        fill: #65767a;
      }

      .cls-6 {
        fill: #6c7c83;
      }

      .cls-7 {
        fill: #7c8d94;
      }

      .cls-8 {
        fill: #324149;
      }

      .cls-9 {
        fill: #8599a0;
      }

      .cls-10 {
        fill: #cd905f;
      }

      .cls-11 {
        fill: #da9d68;
      }

      .cls-12 {
        fill: #c67f4d;
      }

      .cls-13 {
        fill: #dec291;
      }

      .cls-14 {
        fill: #3d4a50;
      }

      .cls-15 {
        fill: #6e7e85;
      }

      .cls-16 {
        fill: #5a6c74;
      }

      .cls-17 {
        fill: #35424a;
      }

      .cls-18 {
        fill: #4b575d;
      }

      .cls-19 {
        fill: #4aaf54;
      }

      .cls-20 {
        fill: #5e7073;
      }

      .cls-21 {
        fill: #5f6f74;
      }

      .cls-22 {
        fill: #5f9e63;
      }

      .cls-23 {
        fill: #74868c;
      }

      .cls-24 {
        fill: #75878d;
      }

      .cls-25 {
        fill: #4c585e;
      }

      .cls-26 {
        fill: #525e64;
      }

      .cls-27 {
        fill: #455158;
      }
    </style>
  </defs>
  <g id="Layer_1-2" data-name="Layer 1">
    <polygon class="cls-19" points="1153.4 0 0 619 1153.4 619 1153.4 0"/>
    <g>
      <path class="cls-18" d="M877.71,423.95c1.17-1.59,2.53-3.06,3.47-4.77,11.53-20.95,19.85-43.08,24.49-66.56,8.1,.26,16.2,.53,24.3,.79,.87,8.8,1.75,17.59,2.62,26.39,.14-.02,.29-.05,.43-.07v-26.33c2.31,0,4.63-.01,6.94-.02,2.47,5.13,4.96,10.25,7.4,15.39,4.52,9.51,9,19.03,13.52,28.54,.34,.71,.88,1.32,1.52,2.26,.26-1.25,.41-2.02,.57-2.79,.36-.04,.73-.09,1.09-.13,4.24,12.2,8.86,24.29,12.59,36.65,2.75,9.1,4.61,18.51,6.37,27.87,1.53,8.15,3.91,15.71,9.48,22.1,4.92,5.64,10.13,11.15,14.15,17.4,6.7,10.44,10.05,22.38,10.89,34.63,.97,14.13,.33,28.21-5.07,41.8-3.63,9.14-7.72,17.97-14.69,24.81-5.58,5.48-12.33,9.77-18.56,14.58-1.28,0-2.57,.02-3.85,.02-1.59-.66-3.16-1.39-4.78-1.96-5.5-1.95-10.9-4.28-16.54-5.65-8.53-2.07-17.32-2.96-26.06-1.56-6.48,1.04-12.89,2.65-19.21,4.43-5.7,1.6-11.24,3.78-16.85,5.71-2.72,.94-5.43,1.89-8.15,2.83-10.02-.34-20.04-.67-30.07-1.01-3.57-1.72-7.15-3.43-10.72-5.15-.83-1.05-1.48-2.34-2.53-3.1-12.01-8.75-19.5-20.61-23.75-34.62-2.72-8.94-2.33-18.03-1.6-27.29,.77-9.85,2.95-19.3,5.98-28.55,4.21-12.85,10.74-24.63,17.87-36.08,2.82-4.52,5.76-8.96,8.64-13.44,8.75-12.88,17.56-25.72,26.18-38.68,1.7-2.55,2.64-5.6,3.94-8.43Zm51.2-44.89c-.43-3.22-4.08-6.92-7.42-7.11-2.92-.16-6.3,3.44-6.94,7.06-2.03,11.48-3.15,23.25-6.52,34.33-4.79,15.76-11.28,30.99-16.98,46.48-.5,1.36-.8,2.94-.65,4.37,.39,3.69,3.59,4.82,6.4,5.76,2.23,.75,6.56-3.44,7.66-6.53,1.49-4.19,3.23-8.3,4.77-12.48,2.85-7.71,5.9-15.35,8.36-23.18,2.47-7.85,4.52-15.86,6.37-23.88,1.89-8.21,3.31-16.54,4.94-24.81Zm-77.96,202.78c5.4,.07,7.53-1.95,7.4-6.77-.34-12.63,.28-25.13,4.05-37.31,3.12-10.06,7.23-19.56,14.65-27.31,3.01-3.15,3.46-7.48,1.23-9.87-3.67-3.93-7.73-3.49-11.93,1.4-4.85,5.64-9.18,11.64-11.92,18.62-2.12,5.39-4.57,10.73-5.9,16.32-1.45,6.13-2.15,12.5-2.5,18.8-.39,7.09-.05,14.22,0,21.33,.03,3.77,2.66,4.53,4.93,4.79Z"/>
      <path class="cls-4" d="M243.39,618.07c-.27-1.07-.78-2.13-.78-3.2-.03-58.83-.02-117.65,0-176.48,0-.38,.08-.76,.12-1.15,3.56,.49,7.11,.99,10.67,1.48,0,.26,.01,.51,.02,.77-.01,8.33,.11,16.66-.1,24.98-.09,3.45,1.2,4.39,4.49,4.35,13.2-.14,26.41-.13,39.61,0,2.8,.03,3.79-.71,3.79-3.64,0-6.25,.42-12.49,.67-18.74,9.19,1.28,18.39,2.51,27.58,3.85,11.57,1.69,23.13,3.5,34.7,5.22,9.06,1.35,18.12,2.67,27.18,3.99,10.06,1.46,20.13,2.93,30.2,4.36,6.3,.89,12.6,1.71,18.9,2.57,0,1.79-.02,3.59-.03,5.38-1.72,1.94-3.7,3.7-5.12,5.84-6.13,9.23-12.66,18.25-17.97,27.94-5.49,10.01-10.52,20.42-14.32,31.16-4.22,11.95-4.88,24.67-4.13,37.36-5.25,.01-10.51,.19-15.75-.03-3.79-.16-5.04,1.66-5.03,5.05,.02,5.38,.06,10.75-.02,16.13-.04,2.99,.99,4.38,4.27,4.32,9.09-.17,18.18-.05,27.27-.05,4.57,4.34,8.8,9.15,13.83,12.86,3.85,2.84,8.72,4.3,13.13,6.37-1.2,.25-2.41,.7-3.62,.72-6.67,.07-13.34,.05-20,.03-19.87-.05-39.75-.11-59.62-.16v-38.31c-1.24,1.06-1.99,1.71-2.85,2.45-.92-1.47-1.66-2.68-2.6-4.17-1.25,1.68-2.18,2.93-3.34,4.48-1.03-1.68-1.78-2.9-2.72-4.41-1.21,1.5-2.18,2.69-3.29,4.07-1.07-1.44-1.93-2.6-2.92-3.92-1.06,1.66-1.91,3-3,4.72-.89-1.46-1.55-2.53-2.2-3.61-.24,.05-.48,.11-.71,.16v38.49c-.63,.07-1.27,.2-1.9,.2-26.45,.01-52.9,.04-79.35-.04-1.69,0-3.38-.91-5.07-1.4Z"/>
      <path class="cls-5" d="M530.89,233.27c-.07-6.93-.14-13.86-.2-20.78,5.84-.25,11.68-.49,17.52-.74,10.51,.02,21.02,.05,31.53,.07,2.07,0,4.14-.03,6.21-.03,37.19,.01,74.38,.03,111.58,.04,0,4.35-.06,8.69,0,13.04,.03,2.53-.4,4.38-3.46,4.96-1.68,.32-3.17,1.69-4.74,2.58,.11,.29,.22,.58,.33,.88,2.62,.27,5.24,.54,7.86,.81,0,108.99,0,217.98,0,326.97v.03c-7.42-.57-11.54-4.67-11.55-11.58-.01-21.03,0-42.05,0-63.08,0-21.15,0-42.31,0-63.46v-63.08c0-21.15-.04-42.31,0-63.46,.04-20.93-.21-41.86,.17-62.81h-22.81c.38,3.67,1.03,7.04,1.04,10.42,.08,27.69,.05,55.38,.05,83.08,0,73.85,0,147.69,0,221.54,0,5.94-2.51,9.98-7.11,11.56-5.54,1.9-10.62,.34-14.35-4.29-.58-.73-1.51-1.17-2.28-1.75-1.39-7.6-2.16-15.37-4.31-22.74-2.94-10.08-9.24-18.34-16.62-25.74,.03-2.33,.06-4.66,.09-6.98,1.04,.69,2.28,1.2,3.09,2.09,5.76,6.38,10.37,13.54,13.56,21.52,1.49,3.74,2.55,7.65,3.8,11.48,.35-.07,.7-.15,1.05-.22v-4.86c0-90.26,0-180.51,.02-270.77,0-7.99,.23-15.99,.35-24.3h-23.1c.41,4.01,1.13,7.85,1.14,11.69,.08,41.28,.06,82.56,.05,123.85-.01,42.44-.04,84.87-.06,127.31-6.56-3.47-12.13-8.04-16.31-14.24-.52-.77-1.36-1.33-2.06-1.99-2.58-13.8-7.93-26.62-13.93-39.2-1.29-2.71-3.03-5.21-4.56-7.81,0-.22,0-.44-.04-.66,.02-.25,0-.48-.09-.72-2.54-4.89-5.08-9.78-7.62-14.66,.25-2.05,.5-4.1,.75-6.15,3.31,6.13,7,12.09,9.84,18.43,3.77,8.4,6.87,17.1,10.26,25.67,.24,.02,.47,.05,.71,.07v-4.28c0-62.81-.02-125.63,.02-188.44,0-9.53,.27-19.06,.41-28.88h-22.42c.15,7.02,.3,13.74,.44,20.47-5.62,.92-9.19,4.39-9.2,9.47-.06,35.23-.07,70.45,0,105.68,.01,6.08,3.03,8.99,9.17,9.53,0,9.48,0,18.97,0,28.45-.58-.43-1.35-.74-1.7-1.31-3.02-4.84-5.79-9.85-8.99-14.56-2.28-3.36-5.12-6.35-7.71-9.5,1.96-4.93-.08-8.52-3.87-11.51,2.19-9.81,4.4-19.61,6.54-29.42,.95-4.35,.68-8.45-3.2-11.45-3.83-2.96-7.76-2.29-11.86-.39-2.14,.99-4.57,1.37-6.87,2.03-2.31-.75-4.61-1.49-6.92-2.24,.12-6.45,.25-12.89,.37-19.34,6.78-1.8,13.06-7.19,21.13-1.96v-5c0-18.84-.07-37.69,.06-56.53,.03-4.1,.76-8.2,1.21-12.78h-22.4Zm85.22-.19c-3.81-4.83-12.39-4.89-15.23,0h15.23Zm-44.73,.02c-4.06-5.12-11.97-4.48-15.76,0h15.76Zm89.63-.09c-5.73-4.67-12-4.53-15.66,0h15.66Z"/>
      <path class="cls-4" d="M290.02,422.08c-.18-1.9-.53-3.8-.53-5.7-.03-43-.03-86-.03-129,0-5.52,.71-6.26,6.12-6.26,15.36-.01,30.73,0,46.09,.02,1.39,0,2.79,.22,4.18,.34,0,17.01,0,34.03,0,51.13,.93-.54,1.84-1.08,3.18-1.86,.79,1.29,1.51,2.47,2.34,3.82,1.44-1.66,2.29-2.65,4.11-4.75,.78,1.88,1.37,3.3,1.94,4.67,1.74-1.66,2.7-2.58,4.5-4.29,.82,1.63,1.45,2.89,2.73,5.43,.92-4.91,3.05-4.52,5.6-3.06v-51.1c2.8-.12,5.61-.33,8.41-.34,14.47-.04,28.94-.03,43.42,0,1.52,0,3.04,.22,4.57,.33-.02,46.79-.05,93.58-.07,140.37-1.62,.26-3.24,.73-4.85,.74-42.52,.04-85.05,.04-127.57,.01-1.38,0-2.76-.32-4.14-.49Zm47.94-31.79c-3.07,0-6.17-.26-9.19,.14-1.12,.15-2.88,1.79-2.92,2.82-.28,6.12-.24,12.26-.03,18.39,.03,.86,1.52,2.36,2.38,2.39,6.13,.21,12.27,.25,18.4-.02,1.03-.05,2.8-1.84,2.85-2.89,.28-5.86,.1-11.75,.15-17.62,.02-2.26-.91-3.28-3.2-3.22-2.81,.07-5.62,.02-8.44,.02Zm-16.81,11.94c0-3.07-.06-6.14,.02-9.2,.05-1.92-.62-2.79-2.65-2.77-6.14,.08-12.28-.09-18.41,.16-.97,.04-2.65,1.71-2.69,2.68-.25,5.87-.16,11.76-.11,17.64,.02,2.24,.99,3.5,3.52,3.46,5.88-.11,11.77-.09,17.65-.03,2,.02,2.75-.79,2.7-2.73-.08-3.07-.02-6.14-.03-9.2Zm56.18,.35c0-2.94-.07-5.88,.02-8.81,.08-2.38-.76-3.54-3.3-3.51-5.75,.09-11.5,.06-17.25,0-2.17-.02-3.37,.71-3.35,3.07,.05,5.75,0,11.49,.03,17.24,0,2.47,1.09,3.68,3.76,3.61,5.49-.13,10.99-.12,16.48,0,2.6,.05,3.78-.88,3.65-3.56-.13-2.68-.03-5.36-.04-8.04Z"/>
      <path class="cls-6" d="M774.7,233.3c.11,1.52,.3,3.03,.31,4.55,.09,19.63,.14,39.26,.21,58.89,0,1.69,0,3.38,.01,5.08,0,12.88,0,25.75,0,38.63,0,3.84,0,7.68,.01,11.52,0,2.28,.05,4.57,.07,6.85-.03,13.06-.06,26.12-.09,39.18,0,16.41,.01,32.82,.02,49.23-.02,7.05-.05,14.1-.05,21.15-.03,33.96-.06,67.92-.09,101.89-25.87,.02-51.74,.03-77.61,.05,0-3.07,0-6.13,0-9.2,0,0,0-.03,0-.03,9.38-2.43,11.54-5.2,11.54-14.8,0-100.12,0-200.24,.04-300.36,0-4.38-.02-8.66-2.33-12.56,8.46,0,16.92,0,25.38,0-.77,4.33-2.18,8.66-2.2,12.99-.18,35.77-.19,71.55-.08,107.32,.19,65.62,.48,131.23,.76,196.85,.03,7.51,8.54,12.72,15.46,9.83,5.85-2.44,7.63-7.01,7.63-12.84-.01-100.53-.02-201.05,.03-301.58,0-4.38-.03-8.66-2.34-12.57,7.77-.01,15.54-.03,23.3-.04Z"/>
      <path class="cls-14" d="M979.21,616.48c6.23-4.82,12.97-9.11,18.56-14.58,6.98-6.84,11.07-15.67,14.69-24.81,5.4-13.59,6.04-27.67,5.07-41.8-.84-12.25-4.18-24.19-10.89-34.63-4.01-6.25-9.23-11.77-14.15-17.4-5.57-6.39-7.95-13.95-9.48-22.1-1.76-9.36-3.62-18.76-6.37-27.87-3.73-12.36-8.35-24.44-12.59-36.65-.36,.04-.73,.09-1.09,.13-.16,.77-.31,1.54-.57,2.79-.64-.94-1.18-1.55-1.52-2.26-4.52-9.51-9-19.03-13.52-28.54-2.44-5.14-4.93-10.26-7.4-15.39,4.84-.11,9.68-.23,14.52-.34,7.21-.14,14.43-.29,21.64-.44,11.87,15.72,22.7,32.1,31.66,49.67,.1,.88,.03,1.82,.32,2.63,2.12,5.84,4.6,11.57,6.4,17.51,1.98,6.52,3.63,13.18,4.9,19.87,1.52,7.96,2.39,16.05,3.72,24.05,.55,3.33,1.19,6.74,2.45,9.84,2.23,5.47,6.15,9.68,10.42,13.85,9.82,9.58,16.91,20.91,20.51,34.45,2.92,10.96,3.92,21.97,1.65,32.9-2.83,13.59-8.64,25.88-18.05,36.54-9.79,11.1-22.05,17.83-35.77,22.12-5.62,1.76-11.73,2.2-17.66,2.6-2.43,.16-4.98-1.38-7.47-2.15Z"/>
      <path class="cls-11" d="M426.58,421.82c.02-46.79,.05-93.58,.07-140.37,10.26,.05,20.51,.1,30.77,.15,0,16.72,0,33.44,0,49.28,1.76,.84,3.05,1.46,4.55,2.17,.46-.5,1.17-1.27,2.09-2.26,.64,1.21,1.15,2.17,1.71,3.23,1.34-1.49,1.95-2.16,2.73-3.02,.77,1.25,1.35,2.19,1.93,3.12-1.91,3.46-1.71,6.88-.53,10.62,2.37,7.51,4.46,15.13,6.29,22.79,.4,1.65-.69,3.71-1.27,5.53-.62,1.96-2.38,4.08-1.98,5.72,.76,3.11,2.71,5.93,4.16,8.87,.33,.85-.13,2.04-.48,3.26-2.12,7.56-4.17,15.15-6.33,22.7-.87,3.03-1.96,5.99-2.95,8.98-.25,0-.5,.02-.75,.03-8.72,0-17.43-.01-26.15-.02-4.63-.26-9.25-.51-13.88-.77Z"/>
      <path class="cls-24" d="M697.52,211.83c-37.19-.01-74.38-.03-111.58-.04-2.07,0-4.14,.02-6.21,.03-3.74-2.95-6.13-6.61-6.15-11.54-.01-4.47,.21-8.96-.06-13.42-.38-6.28,.83-11.76,6.23-15.67,8.07-.09,16.14-.18,24.21-.27,3.47,.03,6.94,.05,10.41,.08,3.39,0,6.78-.02,10.17-.03,18.87,0,37.74,0,56.61-.01,6.94,.03,13.87,.06,20.81,.08,1.84,.03,3.67,.05,5.51,.08,.07,.68-.11,1.64,.27,2,2.05,1.96,3.8,3.81,3.8,7.05-.01,7.47,.65,14.95,.37,22.41-.09,2.32-2.28,4.58-3.56,6.84-.47,.83-1.08,1.58-1.63,2.36-3.07,.02-6.14,.04-9.21,.06Z"/>
      <path class="cls-2" d="M426.58,421.82c4.63,.26,9.25,.51,13.88,.77-.01,14.62-.02,29.23-.03,43.85-6.3-.85-12.61-1.68-18.9-2.57-10.07-1.43-20.13-2.89-30.2-4.36-9.06-1.32-18.13-2.64-27.18-3.99-11.57-1.73-23.13-3.53-34.7-5.22-9.18-1.34-18.38-2.57-27.58-3.85-.03-.24-.06-.48-.07-.72,.02-1.28,.07-2.55,.07-3.83,0-4.92-.53-5.45-5.54-5.45-12.9,0-25.8-.07-38.7,.1-1.42,.02-2.82,1.42-4.24,2.17-3.56-.49-7.11-.99-10.67-1.48-.06-3.19-.16-6.39-.18-9.58-.03-3.44,1.75-5.18,5.17-5.17,12.41,.01,24.82,.04,37.23,.06,1.03-.08,2.06-.15,3.09-.23,.66-.08,1.32-.16,1.98-.24,1.38,.17,2.76,.49,4.14,.49,42.52,.03,85.05,.03,127.57-.01,1.62,0,3.24-.48,4.85-.73Z"/>
      <path class="cls-15" d="M706.73,211.78c.55-.79,1.16-1.53,1.63-2.36,1.28-2.26,3.47-4.51,3.56-6.84,.28-7.45-.39-14.94-.37-22.41,0-3.24-1.75-5.09-3.8-7.05-.38-.36-.19-1.32-.27-2,25.89-.04,51.78-.16,77.66-.08,6.32,.02,10.09,4.21,10.17,10.61,.08,6.53,.07,13.07,0,19.6-.07,6.56-3.76,10.35-10.42,10.79-3.32,.21-6.65,.27-9.97,.4-1.49-.22-2.99-.62-4.48-.62-21.24-.05-42.48-.04-63.72-.04Z"/>
      <path class="cls-17" d="M979.21,616.48c2.49,.77,5.04,2.31,7.47,2.15,5.93-.4,12.04-.84,17.66-2.6,13.72-4.29,25.98-11.02,35.77-22.12,9.4-10.66,15.22-22.94,18.05-36.54,2.27-10.94,1.27-21.95-1.65-32.9-3.6-13.54-10.69-24.87-20.51-34.45-4.27-4.17-8.19-8.38-10.42-13.85-1.27-3.1-1.9-6.51-2.45-9.84-1.33-8-2.21-16.09-3.72-24.05-1.27-6.69-2.93-13.35-4.9-19.87-1.8-5.94-4.28-11.66-6.4-17.51-.29-.81-.22-1.75-.32-2.63,10.45,18.79,18.76,38.42,22.82,59.63,1.8,9.42,6.3,16.75,13.99,22.55,22.15,16.71,32.39,39.1,30.77,66.78-1.86,31.59-26.35,60.13-57.22,66.92-.22,.05-.39,.3-.58,.45-5.92,.81-11.83,2.06-17.77,2.31-7.63,.32-15.29-.17-22.94-.31-2.54-.09-5.09-.17-7.63-.26,1.02-.73,2-1.51,3.07-2.17,.99-.62,2.06-1.1,3.09-1.65,1.28,0,2.57-.02,3.85-.02Z"/>
      <path class="cls-25" d="M904.76,334.78c-3.02-10.59-6.1-21.17-9.04-31.78-2.33-8.42,4.3-15.73,12.9-13.96,5.64,1.16,9.76-.62,13.12-4.98,1.25-1.62,2.59-3.18,3.88-4.77,5.98-7.36,15.24-6.49,19.72,2.09,2.41,4.61,5.43,8.02,10.81,8.75,3.4,8.09,4.63,16.59,4.56,25.28-.03,4.2-.43,8.4-.75,12.59-.15,2.02-.48,4.03-.73,6.05-1.58,.09-3.15,.19-4.73,.28-11-.09-22-.19-33-.28-.04-1.27,.16-2.62-.17-3.81-1.92-6.79-3.92-13.56-6-20.3-1.23-3.99-1.32-7.71,1.47-11.19,.86-1.07,1.23-2.54,1.99-4.16-4.93-1.22-8.42,.6-10.77,3.61-2.28,2.92-3.34,6.25-1.83,10.58,2.85,8.23,4.62,16.84,6.83,25.29-2.75,.24-5.5,.47-8.26,.71Z"/>
      <path class="cls-14" d="M838.47,358.66c9.75,15.14,19.51,30.28,29.26,45.42-.67,.73-1.48,1.37-1.99,2.2-6.65,10.89-13.21,21.85-19.94,32.69-1.06,1.71-2.89,2.94-4.36,4.4-.44-.9-.98-1.77-1.29-2.71-2.98-8.9-5.81-17.85-8.91-26.71-1.68-4.81-3.8-9.47-5.73-14.2-.22,.06-.44,.13-.66,.19,.27,1.76,.55,3.52,.82,5.29-1.56-1.83-2.02-4.02-2.96-5.97-4.65-9.6-9.44-19.14-14.16-28.71-1.89-3.83-3.72-7.7-5.57-11.55,4.85-.13,9.7-.26,14.55-.39,6.98,.01,13.96,.03,20.94,.04Z"/>
      <path class="cls-25" d="M530.52,328.88c2.31,.75,4.61,1.49,6.92,2.23,.17,1.64,.29,3.28,.52,4.91,.82,5.78,2.09,11.53,2.4,17.33,.3,5.58-.37,11.21-.62,16.81-1.57,.09-3.14,.18-4.72,.27-9.73-.07-19.46-.14-29.19-.22-1.01-5.08-1.95-10.16-3.05-15.22-.64-2.97-2.25-5.91-2.13-8.82,.13-3.23,1.73-6.4,2.73-9.76-3.27-1.76-6.74-.74-9.09,3.04-2.81,4.54-1.35,9.08-.11,13.62,1.52,5.57,3.12,11.12,4.68,16.69-.65-.05-1.29-.1-1.94-.14-.37,.22-.74,.44-1.11,.65-1.45,.22-2.91,.45-4.36,.67-.23-1.25-.36-2.53-.7-3.75-2.18-7.73-4.39-15.45-6.62-23.17-2.4-8.34,2.75-14.26,11.24-13.24,2.17,.26,4.49-.76,6.73-1.2,1.25-.76,2.7-1.32,3.71-2.32,1.62-1.62,2.92-3.55,4.42-5.31,4.85-5.7,12.46-5.05,16.4,1.32,1.19,1.92,2.58,3.72,3.88,5.58Z"/>
      <path class="cls-16" d="M706.73,211.78c21.24,0,42.48,0,63.72,.04,1.49,0,2.99,.4,4.48,.62-.08,6.95-.16,13.91-.24,20.86-7.77,.01-15.54,.03-23.3,.04-.52,0-1.03,0-1.55,0-3.61-5.28-11.6-5.28-16.16,0-.51,0-1.03,0-1.54,0-8.46,0-16.92,0-25.38,0-3.08,.25-6.17,.51-9.25,.76-2.62-.27-5.24-.54-7.86-.81-.11-.29-.22-.58-.33-.88,1.57-.9,3.06-2.27,4.74-2.58,3.06-.58,3.49-2.43,3.46-4.96-.05-4.35,0-8.69,0-13.04,3.07-.02,6.14-.04,9.21-.06Z"/>
      <path class="cls-24" d="M604.26,163.3c-.2-15.02,11.16-28.22,26.05-28.96,13.14-.66,26.34-.1,39.52-.07,.74,.57,1.4,1.39,2.24,1.68,10.66,3.65,16.23,11.72,19.13,22.03,1.16,4.13,.12,5.33-4.05,5.35-1.92,0-3.84,0-5.76,0-1.47-6.48-3.65-8.53-10.12-8.66-11.6-.22-23.2-.27-34.8-.23-2.5,0-4.99,.72-7.49,1.11-3.46-3.38-12.03-.55-13.68,4.52-.35,1.07-.62,2.17-.92,3.25-3.37,0-6.75-.01-10.12-.02Z"/>
      <path class="cls-24" d="M530.89,233.27h22.4c-.45,4.58-1.18,8.68-1.21,12.78-.13,18.84-.06,37.69-.06,56.53v5c-8.07-5.24-14.35,.16-21.13,1.96-.08-6.38-.23-12.77-.22-19.15,.04-19.04,.14-38.08,.21-57.12Z"/>
      <path class="cls-10" d="M502.12,329.61c-2.25,.43-4.57,1.45-6.73,1.2-8.49-1.01-13.65,4.9-11.24,13.24,2.23,7.72,4.44,15.44,6.62,23.17,.34,1.22,.48,2.5,.7,3.75-4.25,5.15-6.89,9.43,.29,15.05,.19,.15,.28,.42,.41,.63-1.91,12.51-5.71,24.45-10.88,35.98-4.64-.01-9.29-.03-13.93-.04,.99-2.99,2.08-5.95,2.95-8.98,2.16-7.55,4.21-15.14,6.33-22.7,.34-1.22,.81-2.4,.48-3.26-1.45-2.94-3.4-5.76-4.16-8.87-.4-1.64,1.36-3.76,1.98-5.72,.58-1.82,1.67-3.88,1.27-5.53-1.83-7.66-3.92-15.27-6.29-22.79-1.18-3.74-1.38-7.16,.53-10.62,.66-1.18,1.33-2.36,2.17-3.86,.7,1.12,1.21,1.94,2.14,3.43,.16-1.7,.24-2.56,.32-3.43,7.83,1.95,14.46,.85,19.37-6.49,1.77-2.65,3.9-5.97,8.22-5.04-.18,3.63-.36,7.25-.53,10.88Z"/>
      <path class="cls-24" d="M548.21,211.75c-5.84,.25-11.68,.49-17.52,.74-3.07-.08-6.13-.18-9.2-.25-6.94-.14-11.04-4.13-11.11-10.97-.06-6.66-.09-13.31,0-19.97,.08-6.06,4.06-10.19,10.11-10.25,9.47-.1,18.95,.05,28.42,.1-.22,.44-.33,1.05-.68,1.29-3.61,2.45-4.93,5.78-4.75,10.13,.26,6.12-.32,12.29,.23,18.37,.27,3.03,2.24,5.91,3.47,8.85,.28,.68,.68,1.31,1.02,1.96Z"/>
      <path class="cls-1" d="M370.26,281.47v51.1c-2.55-1.46-4.68-1.86-5.6,3.06-1.28-2.54-1.91-3.8-2.73-5.43-1.79,1.71-2.76,2.63-4.5,4.29-.57-1.37-1.16-2.8-1.94-4.67-1.82,2.1-2.68,3.09-4.11,4.75-.83-1.35-1.55-2.53-2.34-3.82-1.34,.78-2.25,1.32-3.18,1.86,0-17.1,0-34.12,0-51.13,8.13,0,16.27,0,24.4,0Z"/>
      <path class="cls-11" d="M502.66,318.73c-4.32-.92-6.45,2.39-8.22,5.04-4.91,7.34-11.53,8.44-19.37,6.49-.03-16.22-.05-32.44-.08-48.67,7.89-.12,15.78-.37,23.67-.3,2.57,.02,4.15,1.71,4.13,4.54-.06,10.97-.1,21.93-.14,32.9Z"/>
      <path class="cls-9" d="M548.21,211.75c-.34-.65-.74-1.29-1.02-1.96-1.23-2.94-3.2-5.82-3.47-8.85-.55-6.08,.03-12.25-.23-18.37-.18-4.35,1.15-7.68,4.75-10.13,.36-.24,.46-.85,.68-1.29,10.28,.02,20.56,.03,30.84,.05-5.4,3.91-6.61,9.39-6.23,15.67,.27,4.46,.05,8.94,.06,13.42,.01,4.93,2.41,8.59,6.15,11.54-10.51-.02-21.02-.05-31.53-.07Z"/>
      <path class="cls-18" d="M798.26,282.3c4.55-.08,7.71,2.15,9.69,6.08,2.25,4.48,5.05,8.23,10.42,9.1,6.45,13.87,5.37,28.28,3.06,42.77-1.07,.13-2.14,.26-3.21,.38-6.62,0-13.25,0-19.87,0-.01-.13-.02-.26-.01-.4,0-11.15-.04-22.31,.02-33.46,.02-3,.38-6.02-4.26-6.41,1.18-1.8,2.63-3.06,2.85-4.51,.69-4.48,.91-9.04,1.31-13.57Z"/>
      <path class="cls-19" d="M921.49,334.06c11,.09,22,.19,33,.28,.82,1.1,1.57,2.28,2.47,3.3,2.43,2.74,3.05,6.03,1.83,9.23-.86,2.27-2.84,4.11-4.31,6.15-4.84,.11-9.68,.23-14.52,.34-2.31,0-4.63,.01-6.94,.02-1.02,0-2.04,.01-3.06,.02-8.1-.26-16.2-.53-24.3-.79-8.2-4.03-8.57-11.33-.91-17.83,2.75-.24,5.5-.47,8.26-.71,2.83,0,5.65-.01,8.48-.02Z"/>
      <path class="cls-8" d="M841.44,443.37c1.47-1.45,3.3-2.69,4.36-4.4,6.73-10.84,13.29-21.8,19.94-32.69,.51-.83,1.32-1.47,1.99-2.2,3.33,6.63,6.65,13.25,9.98,19.88-1.29,2.82-2.24,5.87-3.94,8.43-8.62,12.97-17.43,25.8-26.18,38.68-.51-.97-1.27-1.89-1.5-2.93-1.62-7.22-3.13-14.47-4.68-21.7,0-1.02,.02-2.04,.03-3.06Z"/>
      <path class="cls-14" d="M959.22,334.06c.25-2.02,.58-4.03,.73-6.05,.31-4.19,.71-8.39,.75-12.59,.07-8.69-1.16-17.2-4.56-25.28,3.72-1.26,7.49-2.41,11.16-3.81,4.3-1.64,8.29-1.41,11.86,1.57,3.7,3.1,4.72,7.18,3.59,11.76-2.64,10.74-5.38,21.45-8.03,32.19-.24,.97-.08,2.03-.11,3.05-5.13-.27-10.26-.55-15.39-.82Z"/>
      <path class="cls-14" d="M821.43,340.25c2.31-14.5,3.39-28.9-3.06-42.77,3.27-1.01,6.67-1.72,9.78-3.09,4.57-2.01,8.88-2.5,12.96,.8,4.06,3.29,4.72,7.57,3.47,12.46-2.65,10.35-5.16,20.73-7.7,31.11-.18,.73-.12,1.52-.17,2.28-5.09-.26-10.18-.52-15.28-.78Z"/>
      <path class="cls-14" d="M798.26,282.3c-.4,4.53-.62,9.08-1.31,13.57-.22,1.45-1.67,2.71-2.85,4.51,4.64,.39,4.28,3.42,4.26,6.41-.06,11.15-.02,22.31-.02,33.46-4.11,.01-8.21,.02-12.32,.03-2.05-6.91-4.02-13.85-6.16-20.73-1.54-4.96-3.15-9.8,1.24-14.26,.66-.68,.73-1.93,1.27-3.48h-7.14c0-1.69,0-3.38-.01-5.08,5.79,.38,8.98-3.37,12-7.46,2.61-3.53,5.39-6.87,10.29-7.09,.25-.01,.5,.08,.75,.12Z"/>
      <path class="cls-12" d="M474.99,281.59c.03,16.22,.05,32.44,.08,48.67-.08,.87-.16,1.73-.32,3.43-.93-1.49-1.44-2.3-2.14-3.43-.85,1.5-1.51,2.68-2.17,3.86-.58-.94-1.16-1.88-1.93-3.12-.78,.86-1.38,1.54-2.73,3.02-.56-1.06-1.07-2.02-1.71-3.23-.92,.99-1.62,1.76-2.09,2.26-1.5-.71-2.8-1.33-4.55-2.17,0-15.85,0-32.57,0-49.28,5.86,0,11.71,0,17.57-.01Z"/>
      <path class="cls-14" d="M975.36,616.5c-1.03,.54-2.1,1.03-3.09,1.65-1.06,.66-2.05,1.44-3.07,2.17-16.67,.04-33.33,.08-50,.13-2.82,0-5.64,.1-8.45,.15-9-.1-17.99-.21-26.99-.31,2.72-.94,5.43-1.9,8.15-2.83,5.61-1.93,11.15-4.1,16.85-5.71,6.32-1.78,12.73-3.4,19.21-4.43,8.73-1.4,17.52-.51,26.06,1.56,5.64,1.37,11.05,3.7,16.54,5.65,1.62,.57,3.19,1.31,4.78,1.96Z"/>
      <path class="cls-5" d="M681.39,163.33c1.92,0,3.84,0,5.76,0,4.17-.02,5.21-1.22,4.05-5.35-2.9-10.32-8.47-18.39-19.13-22.03-.84-.29-1.5-1.11-2.24-1.68,17.15-1.16,30.55,10.49,31.73,27.61,.21,3.05,.29,6.11,.42,9.17-6.94-.03-13.87-.06-20.81-.08,.07-2.54,.15-5.09,.22-7.63Z"/>
      <path class="cls-22" d="M959.22,334.06c5.13,.27,10.26,.55,15.39,.82,6.81,4.36,7.65,9.93,2.46,16.11-.39,.47-.64,1.06-.95,1.59-7.21,.15-14.43,.29-21.64,.44,1.48-2.04,3.45-3.88,4.31-6.15,1.22-3.21,.6-6.49-1.83-9.23-.91-1.03-1.65-2.2-2.47-3.3,1.58-.09,3.15-.19,4.73-.28Z"/>
      <path class="cls-22" d="M821.43,340.25c5.09,.26,10.18,.52,15.28,.78,6.76,4.52,7.48,9.51,2.32,15.91-.35,.44-.38,1.14-.55,1.72-6.98-.01-13.96-.03-20.94-.04,.51-.84,.92-1.76,1.56-2.49,3.84-4.46,4-7.67,.64-12.55-.62-.9-1.01-1.95-1.51-2.93,1.07-.13,2.14-.26,3.21-.39Z"/>
      <path class="cls-6" d="M604.26,163.3c3.37,0,6.75,.01,10.12,.02,0,2.56,0,5.12,.01,7.68-3.47-.03-6.94-.05-10.41-.08,.09-2.54,.19-5.08,.28-7.62Z"/>
      <path class="cls-4" d="M288.04,422.32c-1.03,.08-2.06,.15-3.09,.23,1.03-.08,2.06-.15,3.09-.23Z"/>
      <path class="cls-14" d="M841.42,446.43c1.55,7.24,3.06,14.48,4.68,21.7,.23,1.04,.99,1.96,1.5,2.93-2.88,4.48-5.83,8.92-8.64,13.44-7.13,11.44-13.66,23.23-17.87,36.08-3.03,9.26-5.2,18.71-5.98,28.55-.73,9.25-1.11,18.35,1.6,27.29,4.26,14.01,11.75,25.86,23.75,34.62,1.04,.76,1.69,2.06,2.53,3.1-2,.41-4.09,1.37-5.99,1.1-2.59-.38-5.11-1.56-7.53-2.65-10.85-4.9-22.13-7.28-34.06-6.09-.04-6.02,0-12.04-.15-18.05-.15-6.36-4.06-10.22-10.4-10.4-3.2-.09-6.41-.03-9.61-.04-.05-2.59-.1-5.17-.15-7.76,.03-33.96,.06-67.92,.09-101.89,0-7.05,.03-14.1,.05-21.15,.43-.23,1.15-.37,1.25-.7,3.48-11.39,7.32-22.7,10.19-34.24,2.22-8.95,3.46-18.17,4.61-27.34,.57-4.55-2.49-7.52-6.57-7.68-3.02-.12-6,3.05-6.39,6.91-.32,3.16-.33,6.36-.88,9.48-.27,1.53-1.46,2.9-2.23,4.34,.03-13.06,.06-26.12,.09-39.18,7.67,.08,15.35,.16,23.02,.24,0,50.53,0,101.06,0,151.59,1.4-.55,1.92-1.22,2.33-1.94,3.47-6.09,6.68-12.35,10.43-18.27,6.69-10.55,13.61-20.96,20.62-31.3,2.98-4.4,6.45-8.47,9.7-12.7Z"/>
      <path class="cls-26" d="M928.91,379.07c-1.63,8.28-3.05,16.6-4.94,24.81-1.85,8.03-3.9,16.03-6.37,23.88-2.46,7.83-5.52,15.47-8.36,23.18-1.54,4.18-3.28,8.28-4.77,12.48-1.1,3.09-5.42,7.28-7.66,6.53-2.81-.94-6.01-2.07-6.4-5.76-.15-1.42,.15-3.01,.65-4.37,5.69-15.48,12.19-30.72,16.98-46.48,3.37-11.08,4.48-22.85,6.52-34.33,.64-3.62,4.02-7.23,6.94-7.06,3.34,.19,6.99,3.89,7.42,7.11Z"/>
      <path class="cls-26" d="M850.95,581.84c-2.27-.26-4.9-1.02-4.93-4.79-.05-7.11-.4-14.24,0-21.33,.35-6.3,1.05-12.67,2.5-18.8,1.33-5.59,3.78-10.93,5.9-16.32,2.74-6.97,7.07-12.98,11.92-18.62,4.21-4.89,8.27-5.33,11.93-1.4,2.24,2.4,1.79,6.72-1.23,9.87-7.42,7.76-11.53,17.25-14.65,27.31-3.77,12.18-4.39,24.68-4.05,37.31,.13,4.82-2,6.84-7.4,6.77Z"/>
      <path class="cls-8" d="M795.41,606.5c11.93-1.19,23.2,1.19,34.06,6.09,2.43,1.1,4.95,2.27,7.53,2.65,1.9,.28,3.99-.69,5.99-1.1,3.57,1.72,7.15,3.43,10.72,5.15-21.45,0-42.9,0-64.35,0,4.06-3.3,6.56-7.33,6.05-12.79Z"/>
      <path class="cls-14" d="M929.97,353.41c1.02,0,2.04-.01,3.06-.02v26.33c-.14,.02-.29,.05-.43,.07-.87-8.8-1.75-17.59-2.62-26.39Z"/>
      <path class="cls-2" d="M398.87,574.13c-.75-12.69-.09-25.42,4.13-37.36,3.8-10.74,8.83-21.15,14.32-31.16,5.31-9.69,11.84-18.71,17.97-27.94,1.42-2.14,3.4-3.9,5.12-5.84,.01,4.78-.04,9.56,.09,14.34,.03,1.13,.63,2.25,.97,3.38-.65,1.24-1.26,2.5-1.95,3.73-5.97,10.73-12.57,21.16-17.7,32.27-3.6,7.8-5.18,16.53-7.66,24.85-.03,.46-.07,.91-.1,1.37-.18,1.33-.37,2.65-.55,3.98-.1,1.73-.2,3.47-.3,5.2,0,3.43,.02,6.85,.03,10.28-.34,.9-.69,1.81-1.12,2.94h-13.23v-.03Z"/>
      <path class="cls-3" d="M301.79,445.73c.02,.24,.04,.48,.07,.72-.25,6.25-.67,12.49-.67,18.74,0,2.94-.98,3.67-3.79,3.64-13.2-.13-26.41-.14-39.61,0-3.29,.04-4.58-.91-4.49-4.35,.21-8.32,.09-16.66,.1-24.98,5.75,.64,11.5,1.27,17.26,1.91-.03,.31-.06,.62-.09,.94-2.54,.19-5.08,.37-7.62,.56-.03,.4-.05,.79-.08,1.19,1.21,.27,2.41,.74,3.63,.78,11.76,.33,23.53,.59,35.3,.86Zm-6.91,15.7h-34.52c2.62,2.67,31.86,2.68,34.52,0Zm-34.06-10.83v.74h32.86c0-.25-.01-.49-.02-.74h-32.85Zm0,5.46c0,.26,0,.53,0,.79h32.85c0-.26,0-.53,0-.79h-32.85Z"/>
      <path class="cls-1" d="M353.34,619.37c-7.88-.02-15.76-.03-23.63-.05,0-12.83,0-25.66,0-38.49,.24-.05,.48-.11,.71-.16,.66,1.08,1.32,2.15,2.2,3.61,1.09-1.72,1.95-3.06,3-4.72,.98,1.32,1.84,2.48,2.92,3.92,1.12-1.38,2.08-2.57,3.29-4.07,.93,1.51,1.68,2.73,2.72,4.41,1.16-1.55,2.09-2.8,3.34-4.48,.93,1.5,1.68,2.7,2.6,4.17,.86-.74,1.61-1.39,2.85-2.45v38.31Z"/>
      <path class="cls-10" d="M441.46,489.54c-.34-1.13-.94-2.24-.97-3.38-.12-4.78-.07-9.56-.09-14.34,0-1.79,.02-3.59,.03-5.38,.01-14.62,.02-29.23,.03-43.85,8.72,0,17.43,.01,26.15,.02-1.55,3.74-2.78,7.65-4.71,11.18-5.31,9.7-10.91,19.23-16.4,28.83-.72,1.25-1.43,2.51-2.34,4.12,1.5,.26,2.38,.32,3.2,.57,2.9,.89,5.79,1.84,8.68,2.77-4.53,6.48-9.05,12.97-13.58,19.45Z"/>
      <path class="cls-3" d="M409.62,599.54c-9.09,0-18.18-.12-27.27,.05-3.28,.06-4.31-1.33-4.27-4.32,.07-5.37,.04-10.75,.02-16.13-.01-3.39,1.24-5.21,5.03-5.05,5.24,.22,10.5,.04,15.75,.03,0,0,0,.03,0,.03,.02,.81,.03,1.63,.05,2.44-.05,4.95-.17,9.9-.1,14.85,.02,1.67,.52,3.34,.8,5.01,.46,.02,.91,.04,1.37,.06,3.14-2.69,.87-6.23,1.47-9.32,.43,0,.86,0,1.3,0,.24,2.86,.47,5.72,.72,8.77,1.14,.37,2.3,.75,3.46,1.12,.56,.81,1.11,1.62,1.67,2.42v.02Zm-23.08-2.75c.44,.2,.88,.4,1.32,.61,.59-.88,1.67-1.74,1.69-2.64,.16-5.38,.15-10.77,.01-16.15-.02-.7-1.04-1.37-1.59-2.05-.48,.62-1.36,1.24-1.37,1.87-.1,6.12-.06,12.24-.06,18.37Zm-3.6,.45v-21.38c-2.37,3.51-2.22,18.67,0,21.38Zm12.47-1.28c.25,0,.5,0,.75,0v-18.96c-.25,0-.5,0-.75,0v18.96Zm-11.01,.27c.14,.06,.28,.11,.42,.17v-19.12c-.14,0-.28,0-.42,0v18.96Zm8.85-18.95c-.12,0-.24,0-.36,0v18.44c.12,0,.24,0,.36,0v-18.44Z"/>
      <path class="cls-13" d="M301.79,445.73c-11.77-.28-23.53-.53-35.3-.86-1.22-.03-2.42-.51-3.63-.78,.03-.4,.05-.79,.08-1.19,2.54-.19,5.08-.37,7.62-.56,.03-.31,.06-.62,.09-.94-5.75-.64-11.5-1.27-17.26-1.91,0-.26-.01-.51-.02-.77,1.41-.76,2.81-2.15,4.24-2.17,12.9-.17,25.8-.11,38.7-.1,5,0,5.53,.53,5.54,5.45,0,1.28-.04,2.55-.07,3.83Z"/>
      <path class="cls-2" d="M439.58,618.82c-1-.01-2-.03-3-.04-4.41-2.07-9.28-3.53-13.13-6.37-5.03-3.72-9.26-8.52-13.83-12.86,0,0,0-.02,0-.02,4.57-.24,9.15-.48,13.72-.73l15.6,14.57,1.53,5.36c-.29,.03-.59,.06-.88,.09Z"/>
      <path class="cls-14" d="M575.1,417.21c2.54,4.89,5.08,9.78,7.62,14.66-.09,.07-.26,.19-.25,.22,.09,.18,.22,.34,.33,.5,.03,.22,.05,.44,.04,.66,1.3,4.37,2.83,8.69,3.85,13.12,2.68,11.75,5.5,23.49,7.57,35.36,1.55,8.91,3.62,17.21,11.14,23.13,1.69,1.33,3.21,2.94,4.55,4.62,11.55,14.43,18.06,30.48,15.99,49.36-.9,8.17-2.66,16.08-6.69,23.29-4.69,8.41-10.54,15.81-18.12,21.98-6.89,5.6-14.55,9.29-22.95,11.53-4.12,1.1-8.48,1.58-12.75,1.78-3.17,.15-6.38-.61-9.57-.97,5.32-3.91,11.25-7.22,15.84-11.85,8.87-8.94,13.64-20.22,16.66-32.44,3.5-14.17,2.56-28.18-1.27-41.88-3.32-11.87-9.87-22.25-18.77-30.93-4.2-4.09-6.48-9.1-7.73-14.65-2.16-9.64-3.7-19.45-6.4-28.93-2.79-9.77-6.65-19.24-10.09-28.82-.24-.68-.77-1.66-1.31-1.77-3.37-.67-3.48-3.74-4.61-6.02-1.98-3.98-3.79-8.04-5.78-12.01-3.42-6.82-6.92-13.59-10.38-20.38,4.6-.13,9.2-.26,13.8-.39,6.17-.21,12.33-.41,18.5-.62,.57,1.11,1.04,2.28,1.73,3.31,4.8,7.12,9.65,14.21,14.47,21.32,1.54,2.26,3.04,4.55,4.56,6.83Z"/>
      <path class="cls-23" d="M697.5,561.09c0,3.07,0,6.13,0,9.2,0,0,0,.01,0,.01-19.56,0-39.12,0-58.69,0,.62-5.37,1.24-10.75,1.85-16.12,.77,.58,1.69,1.03,2.28,1.75,3.72,4.63,8.81,6.19,14.35,4.29,4.61-1.58,7.11-5.62,7.11-11.56,0-73.85,0-147.69,0-221.54,0-27.69,.04-55.39-.05-83.08-.01-3.38-.66-6.76-1.04-10.42h22.81c-.38,20.94-.12,41.88-.17,62.81-.05,21.15,0,42.31,0,63.46v63.08c0,21.15,0,42.31,0,63.46,0,21.03,0,42.05,0,63.08,0,6.9,4.12,11,11.54,11.58Z"/>
      <path class="cls-23" d="M619.71,496.5c.02-42.44,.05-84.87,.06-127.31,0-41.28,.03-82.56-.05-123.85,0-3.84-.73-7.68-1.14-11.69h23.1c-.13,8.31-.35,16.31-.35,24.3-.03,90.26-.02,180.51-.02,270.77v4.86c-.35,.07-.7,.15-1.05,.22-1.25-3.83-2.3-7.74-3.8-11.48-3.19-7.98-7.8-15.14-13.56-21.52-.81-.9-2.05-1.4-3.09-2.09-.04-.74-.07-1.48-.11-2.22Z"/>
      <path class="cls-20" d="M697.5,234.1c3.08-.25,6.17-.51,9.25-.76,2.31,3.91,2.34,8.18,2.33,12.56-.05,100.12-.04,200.24-.04,300.36,0,9.6-2.17,12.37-11.54,14.8,0-108.99,0-217.98,0-326.97Z"/>
      <path class="cls-23" d="M575.09,407.24c0-9.48,0-18.97,0-28.45l.03-.06c6.72,.02,9.98-3.42,9.99-10.65,.02-26.8,0-53.6,0-80.4,0-7.18,.09-14.36-.03-21.54-.13-7.85-3.39-11.66-9.94-11.97l-.03-.06c-.15-6.73-.29-13.46-.44-20.47h22.42c-.15,9.82-.41,19.35-.41,28.88-.04,62.81-.02,125.63-.02,188.44v4.28c-.24-.02-.47-.05-.71-.07-3.39-8.57-6.5-17.27-10.26-25.67-2.84-6.34-6.53-12.3-9.84-18.43-.25-1.27-.51-2.55-.76-3.82Z"/>
      <path class="cls-8" d="M640.67,554.19c-.62,5.37-1.24,10.75-1.85,16.12-.77,2.52-1.55,5.03-2.32,7.55-.73,1.18-1.6,2.3-2.18,3.55-6.31,13.41-15.89,23.82-29.19,30.35-6.1,3-12.8,4.78-19.23,7.12-12.82,.11-25.63,.22-38.45,.33,2.04-.91,4.08-1.83,6.12-2.74,.77,0,1.54-.01,2.31-.02,3.19,.35,6.4,1.11,9.57,.97,4.28-.2,8.63-.68,12.75-1.78,8.4-2.24,16.06-5.93,22.95-11.53,7.59-6.17,13.43-13.57,18.12-21.98,4.02-7.21,5.79-15.12,6.69-23.29,2.07-18.88-4.44-34.93-15.99-49.36-1.34-1.68-2.87-3.29-4.55-4.62-7.52-5.92-9.59-14.23-11.14-23.13-2.07-11.87-4.89-23.61-7.57-35.36-1.01-4.43-2.55-8.75-3.85-13.12,1.53,2.6,3.27,5.1,4.56,7.81,6,12.58,11.34,25.41,13.93,39.21,.31,5.92,2.26,11.26,6.53,15.38,3.73,3.59,7.89,6.73,11.86,10.07,7.38,7.4,13.68,15.66,16.62,25.74,2.15,7.37,2.92,15.15,4.31,22.74Z"/>
      <path class="cls-7" d="M575.1,378.79c-6.14-.54-9.16-3.45-9.17-9.53-.07-35.23-.06-70.45,0-105.68,0-5.08,3.58-8.55,9.2-9.47,0,0,.03,.06,.03,.06,.24,3.81,.7,7.61,.7,11.42,.05,35.58,.05,71.15,0,106.73,0,2.14-.47,4.28-.73,6.42l-.03,.06Z"/>
      <path class="cls-14" d="M539.74,370.17c.25-5.61,.92-11.23,.62-16.81-.31-5.8-1.58-11.55-2.4-17.33-.23-1.63-.35-3.27-.52-4.91,2.3-.66,4.72-1.04,6.87-2.03,4.1-1.9,8.03-2.57,11.86,.39,3.88,3,4.15,7.1,3.2,11.45-2.14,9.81-4.36,19.61-6.54,29.42-4.36-.06-8.72-.12-13.08-.17Z"/>
      <path class="cls-22" d="M539.74,370.17c4.36,.06,8.72,.12,13.08,.17,3.8,3,5.83,6.58,3.87,11.51-.79,1.3-1.57,2.59-2.35,3.89-6.17,.21-12.33,.41-18.5,.62,1.03-2.1,2.47-4.1,3.02-6.32,.97-3.93-1.2-6.93-3.83-9.61,1.57-.09,3.14-.18,4.72-.27Z"/>
      <path class="cls-26" d="M554.33,385.75c.78-1.3,1.57-2.59,2.35-3.89,2.59,3.15,5.42,6.14,7.71,9.5,3.2,4.72,5.97,9.72,8.99,14.56,.36,.57,1.13,.88,1.7,1.31,.25,1.27,.51,2.55,.76,3.82-.25,2.05-.5,4.1-.75,6.15-1.52-2.28-3.03-4.56-4.56-6.83-4.82-7.11-9.67-14.2-14.47-21.32-.69-1.03-1.16-2.2-1.73-3.31Z"/>
      <path class="cls-26" d="M619.73,505.71c-3.97-3.34-8.13-6.48-11.86-10.07-4.28-4.12-6.22-9.46-6.53-15.38,.69,.66,1.53,1.22,2.06,1.99,4.18,6.2,9.76,10.78,16.31,14.24,.04,.74,.07,1.48,.11,2.22-.03,2.33-.06,4.66-.09,6.98Z"/>
      <path class="cls-16" d="M616.11,233.09h-15.23c2.84-4.89,11.42-4.83,15.23,0Z"/>
      <path class="cls-16" d="M571.37,233.11h-15.76c3.79-4.48,11.7-5.12,15.76,0Z"/>
      <path class="cls-16" d="M661.01,233.01h-15.66c3.66-4.53,9.93-4.67,15.66,0Z"/>
      <path class="cls-8" d="M582.81,432.59c-.12-.16-.24-.32-.33-.5-.01-.03,.16-.14,.25-.22,.08,.23,.1,.47,.09,.72Z"/>
      <path class="cls-11" d="M337.96,390.28c2.81,0,5.63,.05,8.44-.02,2.29-.06,3.22,.96,3.2,3.22-.06,5.88,.12,11.76-.15,17.62-.05,1.05-1.81,2.84-2.85,2.89-6.12,.27-12.27,.23-18.4,.02-.86-.03-2.35-1.53-2.38-2.39-.21-6.13-.25-12.27,.03-18.39,.05-1.03,1.8-2.67,2.92-2.82,3.02-.4,6.12-.14,9.19-.14Zm-10.7,11.74c0,2.56,.09,5.12-.03,7.67-.1,2.12,.65,2.99,2.85,2.94,5.12-.11,10.24-.1,15.35,0,2.04,.03,2.66-.83,2.63-2.76-.08-5.11-.07-10.23,0-15.35,.03-1.93-.61-2.81-2.65-2.73-2.68,.11-5.37,.02-8.06,.02q-10.09,0-10.1,10.21Z"/>
      <path class="cls-11" d="M321.15,402.22c0,3.07-.05,6.14,.03,9.2,.05,1.95-.7,2.76-2.7,2.73-5.88-.07-11.77-.09-17.65,.03-2.53,.05-3.51-1.21-3.52-3.46-.05-5.88-.14-11.77,.11-17.64,.04-.97,1.71-2.64,2.69-2.68,6.13-.25,12.27-.08,18.41-.16,2.03-.02,2.7,.85,2.65,2.77-.08,3.07-.02,6.14-.02,9.2Zm-12.14,10.37c2.69,0,5.4,.2,8.04-.11,.92-.11,2.39-1.47,2.42-2.31,.23-5.23,.06-10.48,.14-15.72,.03-2.02-.79-2.69-2.73-2.66-5.11,.08-10.23,.11-15.34,0-2.32-.05-2.82,1.03-2.74,3.04,.1,2.55,.02,5.11,.02,7.67q0,10.12,10.19,10.11Z"/>
      <path class="cls-11" d="M377.34,402.57c0,2.68-.09,5.37,.03,8.04,.13,2.68-1.05,3.62-3.65,3.56-5.49-.11-10.99-.13-16.48,0-2.67,.07-3.75-1.14-3.76-3.61-.02-5.75,.03-11.49-.03-17.24-.02-2.37,1.18-3.09,3.35-3.07,5.75,.06,11.5,.08,17.25,0,2.54-.04,3.38,1.13,3.3,3.51-.1,2.93-.02,5.87-.02,8.81Zm-11.75,10.31c0-.09,.01-.18,.02-.27,2.69,0,5.38-.1,8.06,.03,2.21,.1,2.9-.82,2.86-2.94-.1-4.86-.08-9.72,0-14.58,.03-2.19-.69-3.35-3.07-3.32-5.25,.07-10.49,.07-15.74,0-1.95-.03-2.81,.64-2.72,2.66,.11,2.55-.03,5.12,.04,7.67,.08,3.3-.99,7.95,.72,9.53,1.98,1.82,6.45,.93,9.85,1.22Z"/>
      <path class="cls-21" d="M749.84,233.33c.52,0,1.03,0,1.55,0,2.31,3.91,2.34,8.19,2.34,12.57-.05,100.53-.04,201.05-.03,301.58,0,5.83-1.78,10.4-7.63,12.84-6.92,2.89-15.43-2.32-15.46-9.83-.29-65.62-.58-131.23-.76-196.85-.1-35.77-.1-71.55,.08-107.32,.02-4.33,1.43-8.66,2.2-12.99,.51,0,1.03,0,1.54,0,5.39,0,10.78,0,16.16,0Z"/>
      <path class="cls-27" d="M775.22,397.98c.77-1.44,1.96-2.81,2.23-4.34,.55-3.11,.55-6.32,.88-9.48,.39-3.87,3.37-7.03,6.39-6.91,4.08,.16,7.14,3.13,6.57,7.68-1.15,9.17-2.39,18.39-4.61,27.34-2.86,11.55-6.71,22.85-10.19,34.24-.1,.33-.82,.47-1.25,.7,0-16.41-.01-32.82-.02-49.23Z"/>
      <path class="cls-16" d="M775.1,570.25c.05,2.59,.1,5.17,.15,7.76-21.38,0-42.75,0-64.13,.04-1.46,0-2.92,.47-4.38,.72-3.08-.25-6.16-.5-9.24-.75v-7.7s0-.01,0-.01c25.87-.02,51.74-.03,77.61-.05Z"/>
      <path class="cls-22" d="M798.34,359.05c-7.67-.08-15.35-.16-23.02-.25-.02-2.28-.06-4.56-.07-6.85-.01-3.84-.01-7.68-.01-11.52,3.6-.05,7.19-.1,10.79-.15,4.11-.01,8.21-.02,12.32-.03,0,.13,0,.26,.01,.39,0,6.01-.02,12.03-.02,18.04v.36Z"/>
      <path class="cls-27" d="M786.02,340.28c-3.6,.05-7.19,.1-10.79,.15,0-12.87,0-25.75,0-38.63,2.15,0,4.3,0,7.14,0-.54,1.55-.61,2.81-1.27,3.48-4.38,4.46-2.77,9.3-1.24,14.26,2.14,6.88,4.11,13.82,6.16,20.73Z"/>
      <path class="cls-18" d="M555.88,616.45c-.77,0-1.54,.01-2.31,.02-.62-.43-1.19-1.05-1.88-1.25-9.03-2.54-18.02-5.31-27.15-7.42-7.74-1.79-15.51-.25-23.03,1.71-8.4,2.19-15.82,7.47-24.77,8.14-.83,.06-1.61,.99-2.41,1.51-6.98-.08-13.95-.15-20.93-.23-4.82-1.86-9.64-3.71-14.47-5.57-5.2-4.86-10.4-9.72-15.6-14.57-5.5-8.41-9.03-17.55-10.1-27.58,0-3.43-.02-6.85-.03-10.28,.1-1.73,.2-3.47,.29-5.2,.18-1.33,.37-2.65,.55-3.98,.03-.46,.07-.91,.1-1.37,2.48-8.32,4.06-17.05,7.66-24.85,5.13-11.11,11.73-21.54,17.7-32.27,.68-1.22,1.3-2.48,1.95-3.73,4.53-6.48,9.05-12.97,13.58-19.45,5.9-9.55,12.08-18.95,17.61-28.71,3.38-5.96,5.79-12.48,8.64-18.75,5.17-11.53,8.97-23.47,10.88-35.98,7.14,.04,14.28,.09,21.42,.13,.75,7.03,1.5,14.07,2.25,21.1,.24-.02,.49-.05,.73-.07v-21.04c1.82,0,3.64,0,5.46,0,3.46,6.79,6.96,13.57,10.38,20.38,1.99,3.97,3.8,8.03,5.78,12.01,1.13,2.28,1.24,5.35,4.61,6.02,.54,.11,1.06,1.09,1.31,1.77,3.44,9.58,7.3,19.05,10.09,28.82,2.71,9.48,4.24,19.29,6.4,28.93,1.24,5.55,3.53,10.56,7.73,14.65,8.9,8.68,15.45,19.07,18.77,30.93,3.83,13.7,4.77,27.71,1.27,41.88-3.02,12.23-7.78,23.5-16.66,32.44-4.59,4.63-10.52,7.94-15.84,11.85Zm-43.27-205.39c-.69-2.15-.74-4.51-1.92-5.44-1.57-1.24-4.04-1.94-6.07-1.85-3.22,.15-3.56,3.33-4.08,5.69-1.94,8.93-3.32,18-5.56,26.85-2.02,8-4.73,15.84-7.45,23.64-2.18,6.25-4.83,12.34-7.28,18.49-1.56,3.91-.05,8.3,3.25,9.42,2.95,.99,6.38-1.17,7.77-5.1,5.17-14.63,10.7-29.14,15.27-43.96,2.8-9.07,4.12-18.59,6.07-27.74Zm-67.63,174.6c4.82,.26,7.28-2.99,7-8.05-.44-7.8-.39-15.5,1.36-23.28,2.64-11.71,6.55-22.56,14.87-31.57,3.4-3.69,2.71-6.37-1.53-9.03-3.08-1.93-6.46-.85-9.56,3.46-6.42,8.92-11.6,18.43-14.06,29.3-2.57,11.35-4.58,22.67-2.73,34.39,.55,3.49,2.51,4.37,4.66,4.76Z"/>
      <path class="cls-24" d="M697.5,578.01c3.08,.25,6.16,.5,9.24,.75,4.41,3.79,6,8.51,5.48,14.33-.43,4.83,.07,9.74-.14,14.6-.15,3.47,.1,7.27-3.99,9.18-.43,.2-.42,1.37-.61,2.08-7.29,.16-14.57,.45-21.86,.46-31.75,.05-63.5,.03-95.25,0-1.49,0-2.98-.34-4.47-.53,6.43-2.34,13.13-4.12,19.23-7.12,13.3-6.53,22.88-16.93,29.19-30.35,.59-1.25,1.45-2.37,2.18-3.54,20.34,.05,40.67,.09,61.01,.14Z"/>
      <path class="cls-6" d="M707.47,618.94c.19-.72,.18-1.88,.61-2.08,4.09-1.91,3.84-5.71,3.99-9.18,.21-4.86-.29-9.77,.14-14.6,.52-5.82-1.06-10.54-5.48-14.32,1.46-.25,2.92-.71,4.38-.72,21.38-.05,42.75-.04,64.13-.04,3.2,.01,6.41-.04,9.61,.04,6.35,.17,10.25,4.04,10.4,10.4,.14,6.02,.11,12.03,.15,18.05,.51,5.45-1.99,9.49-6.05,12.79-7.17,.05-14.34,.15-21.51,.15-15.01,.02-30.01,.03-45.02-.04-5.12-.02-10.24-.3-15.36-.46Z"/>
      <path class="cls-14" d="M474.33,619.16c.8-.52,1.57-1.45,2.41-1.51,8.95-.67,16.37-5.95,24.77-8.14,7.52-1.96,15.3-3.51,23.03-1.71,9.13,2.12,18.12,4.88,27.15,7.42,.69,.19,1.26,.82,1.88,1.25-2.04,.91-4.08,1.83-6.12,2.74-11.61,.05-23.22,.16-34.83,.15-12.76,0-25.52-.12-38.29-.19Z"/>
      <path class="cls-10" d="M438.94,613.37c4.82,1.86,9.65,3.71,14.47,5.57-4.27,.14-8.53,.28-12.8,.43-.05-.21-.1-.42-.14-.63-.51-1.79-1.02-3.57-1.53-5.36Z"/>
      <path class="cls-4" d="M440.46,618.73c.04,.21,.08,.42,.14,.63-.34-.18-.68-.36-1.02-.54,.29-.03,.59-.06,.88-.09Z"/>
      <path class="cls-12" d="M481.29,422.63c-2.85,6.27-5.26,12.78-8.64,18.75-5.54,9.76-11.71,19.16-17.61,28.71-2.89-.93-5.77-1.89-8.68-2.77-.82-.25-1.7-.31-3.2-.57,.91-1.61,1.62-2.86,2.34-4.12,5.49-9.6,11.09-19.13,16.4-28.83,1.93-3.53,3.16-7.44,4.71-11.18,.25,0,.5-.02,.75-.02,4.64,.01,9.29,.03,13.93,.04Z"/>
      <path class="cls-21" d="M628.98,155.55c-4.2,2.68-4.84,6.76-4.52,11.26,.1,1.38,.07,2.77,.1,4.16-3.39,0-6.78,.02-10.16,.03,0-2.56,0-5.12-.01-7.68,.31-1.08,.58-2.18,.92-3.25,1.65-5.07,10.22-7.89,13.68-4.52Z"/>
      <path class="cls-26" d="M921.49,334.06c-2.83,0-5.65,.01-8.48,.02-2.22-8.45-3.98-17.06-6.83-25.29-1.5-4.34-.44-7.66,1.83-10.58,2.35-3.01,5.84-4.83,10.77-3.61-.75,1.62-1.12,3.09-1.99,4.16-2.79,3.48-2.7,7.2-1.47,11.19,2.07,6.75,4.07,13.51,6,20.3,.34,1.19,.13,2.54,.17,3.81Z"/>
      <path class="cls-18" d="M841.42,446.43c-3.25,4.22-6.71,8.3-9.7,12.7-7.01,10.34-13.93,20.75-20.62,31.3-3.75,5.92-6.96,12.17-10.43,18.27-.41,.73-.93,1.39-2.33,1.94,0-50.53,0-101.06,0-151.59,0,0,0-.36,0-.36,1.55,.11,3.1,.22,4.66,.33,1.86,3.85,3.68,7.72,5.57,11.55,4.72,9.57,9.51,19.11,14.16,28.71,.94,1.95,1.4,4.13,2.96,5.97-.27-1.76-.55-3.52-.82-5.29,.22-.06,.44-.13,.66-.19,1.92,4.73,4.04,9.39,5.73,14.2,3.1,8.86,5.93,17.81,8.91,26.71,.31,.94,.85,1.81,1.29,2.71,0,1.02-.02,2.04-.03,3.06Z"/>
      <path class="cls-19" d="M802.98,359.01c-1.55-.11-3.1-.22-4.66-.33,0-6.01,.02-12.03,.02-18.04,6.62,0,13.25,0,19.87,0,.5,.99,.89,2.04,1.51,2.94,3.36,4.89,3.19,8.1-.64,12.55-.63,.73-1.04,1.66-1.56,2.49-4.85,.13-9.7,.26-14.55,.39Z"/>
      <path class="cls-19" d="M513.59,386.78c-7.14-.04-14.28-.09-21.42-.13-.13-.21-.22-.49-.41-.63-7.18-5.62-4.55-9.89-.29-15.05,1.46-.22,2.91-.45,4.36-.67,.37-.22,.74-.44,1.11-.65,.65,.05,1.29,.1,1.94,.14,2.32,.15,4.64,.3,6.96,.45,9.73,.07,19.46,.14,29.19,.22,2.63,2.67,4.8,5.68,3.83,9.61-.55,2.22-1.98,4.22-3.02,6.32-4.6,.13-9.2,.26-13.8,.39-1.82,0-3.64,0-5.46,0-.99,0-1.99,0-2.98,0Z"/>
      <path class="cls-26" d="M505.84,370.23c-2.32-.15-4.64-.3-6.96-.45-1.56-5.56-3.16-11.11-4.68-16.68-1.24-4.54-2.71-9.09,.11-13.62,2.35-3.79,5.82-4.8,9.09-3.04-1.01,3.36-2.6,6.53-2.73,9.76-.12,2.9,1.48,5.85,2.13,8.82,1.1,5.06,2.04,10.15,3.05,15.22Z"/>
      <path class="cls-26" d="M496.95,369.64c-.37,.22-.74,.44-1.11,.65,.37-.22,.74-.44,1.11-.65Z"/>
      <path class="cls-26" d="M749.84,233.33c-5.39,0-10.78,0-16.16,0,4.57-5.28,12.56-5.28,16.16,0Z"/>
      <path class="cls-13" d="M413.23,571.21c1.07,10.04,4.6,19.17,10.1,27.58-4.57,.24-9.15,.48-13.72,.73-.56-.81-1.11-1.62-1.66-2.42,0-6.71,0-13.42,0-20.13-.56,0-1.11,0-1.67,0v17.6c-.42-.01-.85-.03-1.27-.04v-17.16c-.16,0-.31,.01-.47,.02-.26,3.27-.52,6.53-.78,9.8-.43,0-.86,0-1.29,0-.26-3.35-.53-6.69-.79-10.04-.23,0-.46,0-.68,0v19.35c-.46-.02-.91-.04-1.37-.06,0-3.67,.09-7.34-.03-11-.09-2.96-.44-5.91-.67-8.87-.02-.81-.03-1.63-.05-2.44,4.39,0,8.78,0,13.23,0,.43-1.13,.78-2.03,1.12-2.94Zm-2.4,24.74c.23-.01,.46-.03,.69-.04v-18.9c-.23,0-.46,.01-.69,.02v18.92Z"/>
      <path class="cls-13" d="M413.5,555.73c-.1,1.73-.2,3.47-.29,5.2,.1-1.74,.2-3.47,.29-5.2Z"/>
      <path class="cls-13" d="M414.15,550.38c-.03,.46-.07,.91-.1,1.37,.03-.46,.07-.91,.1-1.37Z"/>
      <path class="cls-13" d="M294.88,461.42c-2.66,2.68-31.9,2.67-34.52,0h34.52Z"/>
      <path class="cls-13" d="M260.82,450.6h32.85c0,.25,.01,.49,.02,.74h-32.85v-.74Z"/>
      <path class="cls-13" d="M260.82,456.06h32.85c0,.26,0,.53,0,.79h-32.85c0-.26,0-.53,0-.79Z"/>
      <path class="cls-13" d="M386.53,596.79c0-6.12-.04-12.25,.06-18.37,.01-.63,.89-1.25,1.37-1.87,.55,.68,1.57,1.35,1.59,2.05,.13,5.38,.15,10.77-.01,16.15-.03,.9-1.1,1.76-1.69,2.64-.44-.2-.88-.4-1.32-.61Z"/>
      <path class="cls-10" d="M403.76,587.21c.26-3.27,.52-6.53,.78-9.8,.16,0,.31-.01,.47-.02v17.16c.42,.01,.85,.03,1.27,.04v-17.6c.56,0,1.11,0,1.67,0,0,6.71,0,13.42,0,20.13-1.16-.38-2.32-.76-3.46-1.13-.25-3.05-.49-5.91-.72-8.77Z"/>
      <path class="cls-11" d="M382.93,597.25c-2.22-2.71-2.37-17.87,0-21.38v21.38Z"/>
      <path class="cls-13" d="M395.4,595.96v-18.96c.25,0,.5,0,.75,0v18.96c-.25,0-.5,0-.75,0Z"/>
      <path class="cls-10" d="M401,596.53v-19.35c.23,0,.46,0,.68,0,.26,3.35,.53,6.69,.79,10.04-.6,3.09,1.67,6.63-1.47,9.32Z"/>
      <path class="cls-11" d="M384.39,596.23v-18.96c.14,0,.28,0,.42,0v19.12c-.14-.06-.28-.11-.42-.17Z"/>
      <path class="cls-10" d="M393.23,577.28v18.44c-.12,0-.24,0-.36,0v-18.44c.12,0,.24,0,.36,0Z"/>
      <path class="cls-10" d="M398.93,576.6c.23,2.96,.57,5.91,.67,8.87,.12,3.66,.03,7.33,.03,11-.28-1.67-.78-3.34-.8-5.01-.07-4.95,.05-9.9,.1-14.85Z"/>
      <path class="cls-5" d="M697.5,578.01c-20.33-.05-40.67-.09-61-.14,.77-2.52,1.55-5.04,2.32-7.55,19.56,0,39.12,0,58.69,0v7.7Z"/>
      <path class="cls-9" d="M575.12,378.73c.25-2.14,.73-4.28,.73-6.42,.05-35.58,.05-71.15,0-106.73,0-3.81-.46-7.61-.7-11.42,6.56,.31,9.82,4.12,9.94,11.97,.12,7.18,.03,14.36,.03,21.54,0,26.8,0,53.6,0,80.4,0,7.23-3.26,10.67-9.99,10.65Z"/>
      <path class="cls-4" d="M327.26,402.02q0-10.21,10.1-10.21c2.69,0,5.38,.09,8.06-.02,2.04-.08,2.68,.8,2.65,2.73-.08,5.11-.08,10.23,0,15.35,.03,1.92-.58,2.79-2.63,2.76-5.12-.09-10.24-.1-15.35,0-2.2,.05-2.95-.82-2.85-2.94,.12-2.55,.03-5.11,.03-7.67Zm3.77,7.99h11.43c-.29-5.22-.55-10.1-.82-14.97-.64-.01-1.29-.03-1.93-.04-.19,1.46-.55,2.92-.55,4.38,0,2.41,.38,4.84,.25,7.23-.04,.73-1.25,1.39-1.93,2.08-.56-.68-1.56-1.32-1.6-2.03-.16-2.41,.13-4.85,.02-7.27-.07-1.49-.57-2.97-.87-4.45-.41,.06-.82,.13-1.23,.19-2.9,4.53,2.54,10.47-2.76,14.86Z"/>
      <path class="cls-4" d="M309.01,412.6q-10.19,0-10.19-10.11c0-2.56,.08-5.12-.02-7.67-.08-2.01,.43-3.09,2.74-3.04,5.11,.12,10.23,.09,15.34,0,1.94-.03,2.77,.64,2.73,2.66-.09,5.24,.08,10.49-.14,15.72-.04,.84-1.5,2.2-2.42,2.31-2.65,.32-5.36,.11-8.04,.12Zm.17-2.39s0,.01,0,.02c1.92,0,3.88,.23,5.76-.06,2.32-.36,4.55-1.77,3.36-4.36-1.67-3.64-3.9-7.09-6.32-10.3-1.69-2.24-3.96-2.25-5.62,.42-1.8,2.88-3.63,5.75-5.3,8.71-1.61,2.86-.52,5.08,2.74,5.52,1.76,.24,3.58,.04,5.38,.04Z"/>
      <path class="cls-4" d="M365.59,412.88c-3.39-.29-7.87,.6-9.85-1.22-1.72-1.58-.64-6.23-.72-9.53-.06-2.56,.07-5.12-.04-7.67-.09-2.02,.77-2.69,2.72-2.66,5.25,.08,10.49,.08,15.74,0,2.39-.03,3.11,1.13,3.07,3.32-.07,4.86-.09,9.72,0,14.58,.04,2.11-.65,3.04-2.86,2.94-2.68-.13-5.37-.03-8.06-.03,0,.09-.01,.18-.02,.27Zm-5.02-18.62c.76,2.99,.69,5.94,2.11,7.65,2.53,3.05,3.28,5.61,.26,8.66h6.17c-3.5-2.61-2.97-4.86-1.04-7.8,1.51-2.31,1.83-5.39,2.8-8.51h-10.3Z"/>
      <path class="cls-26" d="M512.61,411.06c-1.95,9.15-3.27,18.68-6.07,27.74-4.58,14.81-10.1,29.33-15.27,43.96-1.39,3.93-4.83,6.09-7.77,5.1-3.3-1.11-4.81-5.5-3.25-9.42,2.45-6.16,5.1-12.24,7.28-18.49,2.72-7.8,5.43-15.64,7.45-23.64,2.24-8.85,3.61-17.92,5.56-26.85,.51-2.36,.85-5.54,4.08-5.69,2.04-.09,4.51,.61,6.07,1.85,1.18,.93,1.23,3.29,1.92,5.44Z"/>
      <path class="cls-26" d="M444.98,585.66c-2.15-.39-4.11-1.27-4.66-4.76-1.84-11.73,.17-23.04,2.73-34.39,2.46-10.88,7.65-20.38,14.06-29.3,3.1-4.32,6.48-5.4,9.56-3.46,4.23,2.66,4.93,5.34,1.53,9.03-8.32,9-12.23,19.85-14.87,31.57-1.75,7.78-1.8,15.47-1.36,23.28,.28,5.06-2.17,8.31-7,8.05Z"/>
      <path class="cls-14" d="M513.59,386.78c.99,0,1.99,0,2.98,0,0,7.01,0,14.03,0,21.04-.24,.02-.49,.05-.73,.07-.75-7.03-1.5-14.07-2.25-21.1Z"/>
      <path class="cls-10" d="M410.83,595.95v-18.92c.23,0,.46-.01,.69-.02v18.9c-.23,.01-.46,.03-.69,.04Z"/>
      <path class="cls-10" d="M331.03,410.01c5.3-4.39-.13-10.34,2.76-14.86,.41-.06,.82-.13,1.23-.19,.3,1.48,.8,2.96,.87,4.45,.11,2.42-.18,4.86-.02,7.27,.05,.71,1.04,1.36,1.6,2.03,.68-.69,1.89-1.35,1.93-2.08,.13-2.4-.25-4.82-.25-7.23,0-1.46,.35-2.92,.55-4.38,.64,.01,1.29,.03,1.93,.04,.27,4.87,.53,9.74,.82,14.97h-11.43Z"/>
      <path class="cls-10" d="M309.18,410.21c-1.79,0-3.62,.2-5.38-.04-3.26-.44-4.36-2.66-2.74-5.52,1.67-2.96,3.5-5.83,5.3-8.71,1.67-2.67,3.94-2.66,5.62-.42,2.42,3.21,4.65,6.66,6.32,10.3,1.19,2.59-1.03,3.99-3.36,4.36-1.88,.29-3.84,.06-5.76,.06,0,0,0-.01,0-.02Zm6.49-2.48c.02-4.83-3.46-7.57-5.63-10.94-.15-.23-1.45-.15-1.64,.14-2.08,3.35-4.05,6.77-6.41,10.8h13.68Z"/>
      <path class="cls-10" d="M360.57,394.26h10.3c-.97,3.12-1.29,6.2-2.8,8.51-1.93,2.94-2.46,5.18,1.04,7.8h-6.17c3.02-3.05,2.27-5.61-.26-8.66-1.42-1.71-1.36-4.65-2.11-7.65Z"/>
      <path class="cls-4" d="M315.67,407.73h-13.68c2.36-4.02,4.33-7.44,6.41-10.8,.18-.3,1.49-.37,1.64-.14,2.17,3.37,5.64,6.11,5.63,10.94Z"/>
    </g>
  </g>
</svg>