<?xml version="1.0" encoding="UTF-8"?>
<svg id="Layer_2" data-name="Layer 2" xmlns="http://www.w3.org/2000/svg" viewBox="0 0 145 145">
  <defs>
    <style>
      .cls-1 {
        fill: #fff;
      }

      .cls-2 {
        fill: #4aaf54;
      }
    </style>
  </defs>
  <g id="Layer_1-2" data-name="Layer 1">
    <circle class="cls-1" cx="72.59" cy="72.38" r="69"/>
    <g>
      <path class="cls-2" d="M72.5,0C32.46,0,0,32.46,0,72.5s32.46,72.5,72.5,72.5,72.5-32.46,72.5-72.5S112.54,0,72.5,0Zm0,130.54c-32.05,0-58.04-25.98-58.04-58.04S40.45,14.46,72.5,14.46s58.04,25.98,58.04,58.04-25.98,58.04-58.04,58.04Z"/>
      <path class="cls-2" d="M74.73,47.67c-6.93,1.6-13.7,4.29-19.61,8.21-5.44,3.62-9.81,8.69-12.36,14.7-2.45,5.77-3.14,15.29-1.66,27.9,.87,7.42,22.18-28.41,44.84-34.81-11.36,5.56-22.28,16.82-28.15,35.66-.43,1.37,.5,2.79,1.93,2.95,7.48,.82,15.28,.51,21.33-3.75,5.49-3.87,8.53-10.36,10.25-16.85,1.71-6.49,2.34-13.24,4.25-19.67,1.91-6.43,5.39-12.79,11.21-16.14-10.71-.67-21.57-.6-32.02,1.81Z"/>
    </g>
  </g>
</svg>