<?xml version="1.0" encoding="UTF-8"?>
<svg id="Layer_2" data-name="Layer 2" xmlns="http://www.w3.org/2000/svg" viewBox="0 0 145 145">
  <defs>
    <style>
      .cls-1 {
        fill: #fff;
      }

      .cls-2, .cls-3 {
        fill: #4aaf54;
      }

      .cls-3 {
        fill-rule: evenodd;
      }
    </style>
  </defs>
  <g id="Layer_1-2" data-name="Layer 1">
    <circle class="cls-1" cx="72.59" cy="72.38" r="69"/>
    <g>
      <path class="cls-3" d="M63.86,52.29c2.13-1.72,5.18-2.78,8.64-2.78s6.52,1.06,8.64,2.78c1.65,1.33,2.68,3.06,2.68,4.84,0,4.28,3.47,7.75,7.74,7.75s7.75-3.47,7.75-7.75c0-6.69-3.25-12.66-8.49-16.88-2.95-2.38-6.57-4.2-10.58-5.24v-2.16c0-4.27-3.47-7.74-7.75-7.74s-7.75,3.47-7.75,7.74v2.16c-4,1.04-7.62,2.86-10.58,5.24-5.25,4.23-8.49,10.19-8.49,16.88,0,17.98,12.67,20.47,25.33,22.96,6.4,1.26,12.81,2.52,12.81,7.77,0,1.79-1.03,3.51-2.68,4.85-2.13,1.71-5.18,2.78-8.64,2.78s-6.52-1.06-8.64-2.78c-1.65-1.33-2.68-3.06-2.68-4.85,0-4.28-3.47-7.75-7.74-7.75s-7.75,3.47-7.75,7.75c0,6.69,3.25,12.66,8.49,16.88,2.96,2.38,6.57,4.2,10.58,5.24v2.17c0,4.28,3.47,7.74,7.75,7.74s7.75-3.47,7.75-7.74v-2.17c4-1.04,7.62-2.86,10.58-5.24,5.25-4.23,8.49-10.19,8.49-16.88,0-17.97-12.67-20.46-25.33-22.95-6.4-1.26-12.8-2.52-12.8-7.77,0-1.79,1.03-3.51,2.68-4.84Z"/>
      <path class="cls-2" d="M72.5,0C32.46,0,0,32.46,0,72.5s32.46,72.5,72.5,72.5,72.5-32.46,72.5-72.5S112.54,0,72.5,0Zm0,130.54c-32.05,0-58.04-25.98-58.04-58.04S40.45,14.46,72.5,14.46s58.04,25.98,58.04,58.04-25.98,58.04-58.04,58.04Z"/>
    </g>
  </g>
</svg>