<?xml version="1.0" encoding="UTF-8"?>
<svg id="Layer_2" data-name="Layer 2" xmlns="http://www.w3.org/2000/svg" viewBox="0 0 144.73 144.73">
  <defs>
    <style>
      .cls-1 {
        fill: #fff;
      }

      .cls-2 {
        fill: #4aaf54;
      }
    </style>
  </defs>
  <g id="Layer_1-2" data-name="Layer 1">
    <g>
      <circle class="cls-1" cx="72.38" cy="73" r="69"/>
      <g>
        <path class="cls-2" d="M72.37,0C32.4,0,0,32.4,0,72.37s32.4,72.37,72.37,72.37,72.37-32.4,72.37-72.37S112.33,0,72.37,0Zm0,130.29c-31.99,0-57.93-25.94-57.93-57.93S40.37,14.44,72.37,14.44s57.93,25.94,57.93,57.93-25.94,57.93-57.93,57.93Z"/>
        <g id="Layer_4" data-name="Layer 4">
          <path id="element" class="cls-2" d="M40.54,75.82c-1.86,3.94-1.98,6.53-1.38,13.84,.61,7.3,5.36,9.65,9.91,8.98s11.1,3.34,15.57,4.41c12.72,3.05,17.31,1.8,26.94,1.76,6.94-.02,12.6-5.04,8.58-10.52,5.36-.34,6.49-7.97,2.65-9.91,4.05-.85,4.43-8.78-.79-11.06,5.56-3.09,4.21-9.87-1.98-10.76-4.45-.65-6.72-.32-12.34-.16-3.05,.08-6.21-1.19-4.13-6.88,1.78-4.83,6.25-9.16,5.72-13.84-.91-7.89-7.52-11.39-10.34-9.22-4.15,3.2,3.2,7.75-6.65,20.55-7.54,9.79-9.36,.73-19.94,18.18-1.96,3.24-9.75,.2-11.83,4.63Z"/>
        </g>
      </g>
    </g>
  </g>
</svg>