<?xml version="1.0" encoding="UTF-8"?>
<svg id="Layer_2" data-name="Layer 2" xmlns="http://www.w3.org/2000/svg" viewBox="0 0 145 145">
  <defs>
    <style>
      .cls-1 {
        fill: #fff;
      }

      .cls-2 {
        fill: #4aaf54;
      }
    </style>
  </defs>
  <g id="Layer_1-2" data-name="Layer 1">
    <circle class="cls-1" cx="72.44" cy="72.32" r="69"/>
    <g>
      <path class="cls-2" d="M72.5,0C32.46,0,0,32.46,0,72.5s32.46,72.5,72.5,72.5,72.5-32.46,72.5-72.5S112.54,0,72.5,0Zm0,130.54c-32.05,0-58.04-25.98-58.04-58.04S40.45,14.46,72.5,14.46s58.04,25.98,58.04,58.04-25.98,58.04-58.04,58.04Z"/>
      <path class="cls-2" d="M88.3,80.69c-2.05-1.55-7.66-5.66-15.81-5.55-8.39,.12-14.02,4.63-15.81,6.12-6.62,5.48-8.68,12.51-9.28,14.94,.98,.98,2.38,2.27,4.19,3.61,2.2,1.63,6.17,4.21,11.21,5.72,10.47,3.15,19.67-.05,21.91-.9,6.84-2.58,11.35-6.74,13.74-9.34-.8-2.56-3.3-9.43-10.15-14.59Z"/>
      <path class="cls-2" d="M72.52,73.32c8.58,0,15.54-6.96,15.54-15.55v-.97h-31.08v.97c0,8.59,6.96,15.55,15.54,15.55Z"/>
      <path class="cls-2" d="M55.96,53.88h33.02c1.07,0,1.94-.87,1.94-1.94s-.87-1.94-1.94-1.94h-.97c-.34-5.37-3.42-10.18-8.16-12.72l-1.55,6.15c-.11,.44-.51,.75-.97,.74h-.23c-.52-.11-.86-.62-.75-1.15,0-.02,0-.04,.01-.05l1.85-7.28c-.32-1.29-1.48-2.2-2.82-2.21h-5.83c-1.33,0-2.49,.91-2.82,2.21l1.85,7.28c.14,.52-.17,1.05-.68,1.19-.02,0-.04,0-.05,.01h-.23c-.46,.01-.86-.29-.97-.74l-1.51-6.15c-4.73,2.54-7.82,7.35-8.16,12.72h-1.02c-1.07,0-1.94,.87-1.94,1.94s.87,1.94,1.94,1.94Z"/>
    </g>
  </g>
</svg>